<svg id="Capa_1" enable-background="new 0 0 512 512" height="512" viewBox="0 0 512 512" width="512" xmlns="http://www.w3.org/2000/svg"><g><g><path d="m256.003 0 41.384 234.89-41.384 277.11c-46.14.08-93.49-12.58-137.34-40.61l-74.88 36.95c-25.64 12.74-52.94-14.43-40.14-40.19l36.67-75.08c.04-.08.03-.13.03-.13-107.91-169.27 13.34-392.79 215.66-392.94z" fill="#f54481"/></g><path d="m511.963 255.76c0 149.76-122.95 255.99-255.96 256.24v-512h.21c68.31 0 132.54 26.6 180.84 74.91 48.31 48.31 74.91 112.53 74.91 180.85z" fill="#e20a6c"/><g fill="#e20a6c"><path d="m175.982 253.045c14.226-.001 20.528-18.157 9.147-26.897l-45.617-35.037 45.617-35.037c6.57-5.046 7.806-14.463 2.76-21.033s-14.464-7.806-21.033-2.759l-61.105 46.933c-7.813 6.001-7.811 17.793 0 23.792l61.105 46.933c2.724 2.093 5.937 3.105 9.126 3.105z"/><path d="m256 234.78 14.782 14.464-14.782 27.976-88.74 88.74c-5.86 5.85-15.36 5.85-21.22 0-5.85-5.86-5.85-15.36 0-21.22z"/></g><g fill="#a30f59"><path d="m406.25 308.99-61.11-46.93c-6.57-5.05-15.98-3.81-21.03 2.76-5.04 6.57-3.81 15.99 2.76 21.03l45.62 35.04-45.62 35.04c-11.37 8.73-5.09 26.89 9.15 26.89 3.19 0 6.4-1.01 9.12-3.1l61.11-46.93c7.81-6.01 7.81-17.8 0-23.8z"/><path d="m365.96 146.04c-5.86-5.85-15.36-5.85-21.22 0l-88.74 88.74v42.44l109.96-109.96c5.85-5.86 5.85-15.36 0-21.22z"/></g></g></svg>