<svg width="60" height="60" viewBox="0 0 60 60" fill="none" xmlns="http://www.w3.org/2000/svg">
<path d="M30 0C24.0666 0 18.2664 1.75947 13.3329 5.05591C8.39943 8.35235 4.55426 13.0377 2.28363 18.5195C0.0129988 24.0013 -0.581102 30.0333 0.576455 35.8527C1.73401 41.6721 4.59123 47.0176 8.78681 51.2132C12.9824 55.4088 18.3279 58.266 24.1473 59.4236C29.9667 60.5811 35.9987 59.987 41.4805 57.7164C46.9623 55.4458 51.6477 51.6006 54.9441 46.6671C58.2405 41.7336 60 35.9334 60 30C59.9903 22.0465 56.8265 14.4215 51.2025 8.7975C45.5785 3.1735 37.9535 0.00968822 30 0ZM47.32 11.54C47.3123 12.4831 46.9322 13.3849 46.2626 14.049C45.593 14.7132 44.6881 15.0858 43.745 15.0858C42.8019 15.0858 41.897 14.7132 41.2274 14.049C40.5578 13.3849 40.1777 12.4831 40.17 11.54C40.1777 10.5969 40.5578 9.6951 41.2274 9.03096C41.897 8.36683 42.8019 7.99417 43.745 7.99417C44.6881 7.99417 45.593 8.36683 46.2626 9.03096C46.9322 9.6951 47.3123 10.5969 47.32 11.54ZM23.68 14.55C27.744 12.9633 32.2561 12.9633 36.32 14.55C36.4918 14.6235 36.628 14.7612 36.6997 14.9337C36.7713 15.1062 36.7727 15.2999 36.7036 15.4735C36.6344 15.647 36.5002 15.7866 36.3295 15.8626C36.1588 15.9386 35.9652 15.9448 35.79 15.88C32.0662 14.43 27.9338 14.43 24.21 15.88C24.1228 15.9155 24.0293 15.9332 23.9351 15.9323C23.841 15.9313 23.7479 15.9117 23.6614 15.8745C23.5748 15.8373 23.4966 15.7832 23.4311 15.7155C23.3656 15.6478 23.3143 15.5677 23.28 15.48C23.2106 15.3036 23.2138 15.1069 23.2887 14.9327C23.3636 14.7585 23.5042 14.621 23.68 14.55ZM43.85 22.89C43.7624 22.7246 43.7429 22.5315 43.7958 22.352C43.8487 22.1725 43.9697 22.0208 44.133 21.9293C44.2963 21.8379 44.4889 21.814 44.6696 21.8627C44.8503 21.9114 45.0048 22.0289 45.1 22.19C47.1217 25.7959 47.7918 30.0045 46.99 34.06C46.9722 34.1522 46.9363 34.24 46.8843 34.3182C46.8323 34.3965 46.7653 34.4636 46.6871 34.5157C46.609 34.5678 46.5213 34.6038 46.429 34.6218C46.3368 34.6397 46.242 34.6391 46.15 34.62C45.9647 34.5822 45.8018 34.4727 45.6969 34.3154C45.592 34.158 45.5536 33.9656 45.59 33.78C46.324 30.0586 45.707 26.1974 43.85 22.89ZM47.32 39.04C47.3103 39.9818 46.9294 40.8817 46.26 41.5442C45.5906 42.2067 44.6868 42.5783 43.745 42.5783C42.8032 42.5783 41.8994 42.2067 41.23 41.5442C40.5607 40.8817 40.1797 39.9818 40.17 39.04C40.1797 38.0982 40.5607 37.1983 41.23 36.5358C41.8994 35.8733 42.8032 35.5017 43.745 35.5017C44.6868 35.5017 45.5906 35.8733 46.26 36.5358C46.9294 37.1983 47.3103 38.0982 47.32 39.04ZM18.56 30.13C18.56 27.0959 19.7653 24.1861 21.9107 22.0407C24.0561 19.8953 26.9659 18.69 30 18.69C33.0341 18.69 35.9439 19.8953 38.0893 22.0407C40.2347 24.1861 41.44 27.0959 41.44 30.13C40.81 45.3 19.19 45.3 18.56 30.13ZM14.41 33.78C14.4305 33.8833 14.4278 33.9899 14.402 34.0921C14.3763 34.1942 14.3282 34.2894 14.2613 34.3707C14.1943 34.4521 14.1101 34.5175 14.0148 34.5623C13.9195 34.6072 13.8154 34.6303 13.71 34.63C13.5448 34.633 13.3839 34.5774 13.2557 34.4731C13.1276 34.3687 13.0405 34.2224 13.01 34.06C12.2082 30.0045 12.8783 25.7959 14.9 22.19C14.9459 22.1072 15.0077 22.0343 15.0819 21.9755C15.156 21.9166 15.241 21.8729 15.332 21.8469C15.423 21.8209 15.5182 21.8131 15.6123 21.8239C15.7063 21.8347 15.7973 21.864 15.88 21.91C16.0438 22.006 16.1637 22.1621 16.2141 22.3451C16.2645 22.5282 16.2415 22.7237 16.15 22.89C14.293 26.1974 13.676 30.0586 14.41 33.78ZM19.83 39.04C19.8203 39.9818 19.4394 40.8817 18.77 41.5442C18.1006 42.2067 17.1968 42.5783 16.255 42.5783C15.3132 42.5783 14.4094 42.2067 13.74 41.5442C13.0706 40.8817 12.6897 39.9818 12.68 39.04C12.6897 38.0982 13.0706 37.1983 13.74 36.5358C14.4094 35.8733 15.3132 35.5017 16.255 35.5017C17.1968 35.5017 18.1006 35.8733 18.77 36.5358C19.4394 37.1983 19.8203 38.0982 19.83 39.04ZM19.83 11.54C19.8223 12.4831 19.4422 13.3849 18.7726 14.049C18.103 14.7132 17.1981 15.0858 16.255 15.0858C15.3119 15.0858 14.407 14.7132 13.7374 14.049C13.0678 13.3849 12.6877 12.4831 12.68 11.54C12.6877 10.5969 13.0678 9.6951 13.7374 9.03096C14.407 8.36683 15.3119 7.99417 16.255 7.99417C17.1981 7.99417 18.103 8.36683 18.7726 9.03096C19.4422 9.6951 19.8223 10.5969 19.83 11.54ZM10.05 17.75C10.0501 17.0968 10.2559 16.4603 10.6382 15.9307C11.0206 15.4012 11.56 15.0055 12.18 14.8L12.4 14.72C12.8666 15.2919 13.4546 15.7528 14.1213 16.0693C14.7881 16.3858 15.5169 16.55 16.255 16.55C16.9931 16.55 17.7219 16.3858 18.3887 16.0693C19.0554 15.7528 19.6434 15.2919 20.11 14.72C20.7802 14.8967 21.3735 15.2892 21.7983 15.8369C22.2231 16.3846 22.4556 17.0569 22.46 17.75V18.99C22.4589 19.361 22.3111 19.7164 22.0488 19.9787C21.7864 20.2411 21.431 20.3889 21.06 20.39H11.45C11.079 20.3889 10.7236 20.2411 10.4613 19.9787C10.1989 19.7164 10.0511 19.361 10.05 18.99V17.75ZM22.46 46.49C22.4589 46.861 22.3111 47.2164 22.0488 47.4787C21.7864 47.7411 21.431 47.8889 21.06 47.89H11.45C11.079 47.8889 10.7236 47.7411 10.4613 47.4787C10.1989 47.2164 10.0511 46.861 10.05 46.49V45.25C10.051 44.556 10.2823 43.882 10.7076 43.3337C11.1329 42.7853 11.7281 42.3936 12.4 42.22C12.8706 42.7857 13.4599 43.2408 14.1262 43.5532C14.7924 43.8656 15.5192 44.0275 16.255 44.0275C16.9908 44.0275 17.7177 43.8656 18.3839 43.5532C19.0501 43.2408 19.6394 42.7857 20.11 42.22L20.33 42.29C20.9513 42.4965 21.4917 42.8938 21.8741 43.4252C22.2566 43.9567 22.4616 44.5952 22.46 45.25V46.49ZM35.63 47.06C31.9808 48.31 28.0193 48.31 24.37 47.06C24.1946 46.995 24.0516 46.8637 23.9718 46.6944C23.892 46.5252 23.8818 46.3314 23.9433 46.1546C24.0049 45.9779 24.1332 45.8324 24.3009 45.7492C24.4685 45.6661 24.6621 45.652 24.84 45.71C28.1855 46.85 31.8144 46.85 35.16 45.71C35.3379 45.6519 35.5316 45.6658 35.6993 45.7489C35.8671 45.832 35.9956 45.9776 36.0571 46.1544C36.1187 46.3313 36.1084 46.5252 36.0286 46.6945C35.9487 46.8638 35.8056 46.995 35.63 47.06ZM49.95 46.49C49.9489 46.861 49.8011 47.2164 49.5388 47.4787C49.2764 47.7411 48.921 47.8889 48.55 47.89H38.94C38.569 47.8889 38.2136 47.7411 37.9513 47.4787C37.689 47.2164 37.5411 46.861 37.54 46.49V45.25C37.5429 44.5565 37.7749 43.8835 38.1999 43.3355C38.6249 42.7875 39.2191 42.3954 39.89 42.22C40.3613 42.7846 40.9508 43.2388 41.6169 43.5505C42.2831 43.8622 43.0096 44.0238 43.745 44.0238C44.4805 44.0238 45.2069 43.8622 45.8731 43.5505C46.5392 43.2388 47.1288 42.7846 47.6 42.22L47.82 42.29C48.4414 42.4965 48.9817 42.8938 49.3641 43.4252C49.7466 43.9567 49.9516 44.5952 49.95 45.25V46.49ZM49.95 18.99C49.9489 19.361 49.8011 19.7164 49.5388 19.9787C49.2764 20.2411 48.921 20.3889 48.55 20.39H38.94C38.569 20.3889 38.2136 20.2411 37.9513 19.9787C37.689 19.7164 37.5411 19.361 37.54 18.99V17.76C37.5412 17.0649 37.7724 16.3898 38.1975 15.8399C38.6226 15.29 39.2177 14.8962 39.89 14.72C40.3606 15.2857 40.9499 15.7408 41.6162 16.0532C42.2824 16.3656 43.0092 16.5275 43.745 16.5275C44.4808 16.5275 45.2077 16.3656 45.8739 16.0532C46.5401 15.7408 47.1294 15.2857 47.6 14.72L47.82 14.8C48.44 15.0055 48.9795 15.4012 49.3618 15.9307C49.7442 16.4603 49.95 17.0968 49.95 17.75V18.99ZM38.01 29.62C38.1445 29.7557 38.22 29.939 38.22 30.13C38.22 30.321 38.1445 30.5043 38.01 30.64L35.28 33.37C35.1445 33.4972 34.9659 33.5686 34.78 33.57C34.6396 33.5679 34.5029 33.5249 34.3865 33.4463C34.2702 33.3676 34.1794 33.2567 34.1253 33.1271C34.0711 32.9976 34.056 32.855 34.0817 32.717C34.1074 32.5789 34.1728 32.4514 34.27 32.35L36.5 30.13L34.27 27.91C34.1392 27.7751 34.0665 27.5944 34.0675 27.4065C34.0685 27.2186 34.1431 27.0386 34.2753 26.9051C34.4075 26.7717 34.5867 26.6953 34.7745 26.6925C34.9624 26.6896 35.1439 26.7606 35.28 26.89L38.01 29.62ZM25.73 27.91L23.5 30.13L25.73 32.35C25.8267 32.4515 25.8918 32.579 25.9173 32.7169C25.9427 32.8548 25.9275 32.9972 25.8734 33.1265C25.8193 33.2559 25.7287 33.3668 25.6127 33.4455C25.4967 33.5243 25.3602 33.5675 25.22 33.57C25.0341 33.5686 24.8556 33.4972 24.72 33.37L21.99 30.64C21.8555 30.5043 21.78 30.321 21.78 30.13C21.78 29.939 21.8555 29.7557 21.99 29.62L24.72 26.89C24.7862 26.8234 24.8649 26.7706 24.9515 26.7346C25.0382 26.6985 25.1312 26.68 25.225 26.68C25.3189 26.68 25.4118 26.6985 25.4985 26.7346C25.5851 26.7706 25.6638 26.8234 25.73 26.89C25.8646 27.0256 25.9401 27.2089 25.9401 27.4C25.9401 27.5911 25.8646 27.7744 25.73 27.91ZM31.37 27.57L30.01 33.03C29.9643 33.2123 29.8482 33.369 29.6871 33.466C29.5261 33.5629 29.3332 33.592 29.1507 33.5471C28.9682 33.5021 28.811 33.3867 28.7134 33.2261C28.6158 33.0654 28.5858 32.8727 28.63 32.69L29.99 27.23C30.0368 27.0489 30.1532 26.8935 30.3138 26.7976C30.4745 26.7018 30.6664 26.6731 30.8481 26.7178C31.0297 26.7626 31.1864 26.8772 31.2841 27.0367C31.3818 27.1962 31.4127 27.3879 31.37 27.57Z" fill="url(#paint0_linear_249_77)"/>
<defs>
<linearGradient id="paint0_linear_249_77" x1="1.34959e-05" y1="30" x2="60" y2="30" gradientUnits="userSpaceOnUse">
<stop stop-color="#3D4BD4"/>
<stop offset="1" stop-color="#00C9BF"/>
</linearGradient>
</defs>
</svg>
